<svg xmlns="http://www.w3.org/2000/svg" version="1.0" viewBox="0 0 700.000000 700.000000">
  <path d="M0 3500 l0 -3500 3500 0 3500 0 0 3500 0 3500 -3500 0 -3500 0 0 -3500z m2794 2923 c2 -10 159 -687 347 -1505 189 -819 346 -1488 349 -1488 3 0 163 663 355 1473 191 809 352 1487 357 1505 l9 32 994 0 995 0 0 -2940 0 -2940 -790 0 -790 0 -1 1408 -1 1407 -352 -1405 -351 -1405 -417 -3 -417 -2 -9 32 c-4 18 -163 648 -353 1399 l-344 1367 -5 -1397 -5 -1396 -785 0 -785 0 -3 2938 -2 2937 999 0 c943 0 1000 -1 1005 -17z" transform="translate(0.000000,700.000000) scale(0.100000,-0.100000)"/>
</svg>
